<svg width="69" height="68" viewBox="0 0 69 68" fill="none" xmlns="http://www.w3.org/2000/svg">
<path d="M58.4734 30.6381H10.0964V39.8187H58.4734V30.6381Z" fill="#C5824B"/>
<path d="M53.3243 39.8185H15.2441L18.5167 62.2577C18.883 64.7686 21.2548 66.6456 24.0617 66.6456H44.5069C47.3134 66.6456 49.6855 64.7686 50.0517 62.2577L53.3243 39.8185Z" fill="#C5824B"/>
<path d="M34.2842 20.7613H29.0416C21.2104 20.7613 14.862 14.4179 14.862 6.59302V1.35461H20.1046C27.9357 1.35461 34.2842 7.69802 34.2842 15.5229V20.7613Z" fill="#52A345"/>
<path d="M34.2842 20.7613H39.5268C47.358 20.7613 53.7064 14.4179 53.7064 6.59302V1.35461H48.4639C40.6327 1.35461 34.2842 7.69802 34.2842 15.5229V20.7613Z" fill="#52A345"/>
<path d="M58.4727 29.2831H35.6403V22.1158H39.5271C48.0933 22.1158 55.0624 15.1523 55.0624 6.59296V1.35456C55.0624 0.606423 54.4555 0 53.7068 0H48.4643C42.1569 0 36.7159 3.77547 34.2847 9.18347C31.8536 3.77547 26.4124 0 20.105 0H14.8626C14.1138 0 13.5069 0.606423 13.5069 1.35456V6.59282C13.5069 15.1522 20.476 22.1157 29.0422 22.1157H32.929V29.283H10.0966C9.34789 29.283 8.74098 29.8894 8.74098 30.6375V39.8182C8.74098 40.5663 9.34789 41.1728 10.0966 41.1728H14.0722L17.1757 62.4527C17.637 65.6151 20.5975 67.9999 24.0621 67.9999H44.5073C47.972 67.9999 50.9325 65.6151 51.3937 62.4527L54.4972 41.1728H58.4728C59.2216 41.1728 59.8285 40.5663 59.8285 39.8182V30.6375C59.8283 29.8896 59.2214 29.2831 58.4727 29.2831ZM48.4643 2.70911H52.3511V6.59282C52.3511 13.6583 46.5984 19.4065 39.5272 19.4065H37.5576L44.8355 12.1344C45.3649 11.6054 45.3649 10.7477 44.8355 10.2186C44.3061 9.68975 43.4477 9.68975 42.9181 10.2186L35.6404 17.4908V15.5228C35.6403 8.45738 41.393 2.70911 48.4643 2.70911ZM16.2181 6.59296V2.70911H20.1049C27.1762 2.70911 32.9289 8.45725 32.9289 15.5228V17.4908L21.9433 6.51393C21.4139 5.98494 20.5555 5.98494 20.0259 6.51393C19.4965 7.04293 19.4965 7.90063 20.0259 8.42976L31.0115 19.4066H29.0419C21.9709 19.4067 16.2181 13.6586 16.2181 6.59296ZM48.7106 62.0623C48.4422 63.903 46.6351 65.291 44.5072 65.291H24.0621C21.9342 65.291 20.1272 63.903 19.8587 62.0623L16.8121 41.173H51.7571L48.7106 62.0623ZM11.4523 38.4638V31.9922H57.1172V38.4638H11.4523Z" fill="#5E282D"/>
</svg>
