<svg width="32" height="32" viewBox="0 0 32 32" fill="none" xmlns="http://www.w3.org/2000/svg">
<circle cx="16" cy="16" r="16" fill="#475009"/>
<path d="M16.1687 16.1358C19.4999 16.1358 22.1998 13.6431 22.1998 10.5677C22.1998 7.49219 19.4999 5 16.1687 5C12.8364 5 10.1354 7.49219 10.1354 10.5677C10.1353 13.6431 12.8364 16.1358 16.1687 16.1358ZM16.1687 7.82839C17.8073 7.82839 19.1356 9.05462 19.1356 10.5676C19.1356 12.0807 17.8073 13.3068 16.1687 13.3068C14.5285 13.3068 13.2006 12.0807 13.2006 10.5676C13.2006 9.05462 14.5284 7.82839 16.1687 7.82839ZM23.1208 16.8153C22.781 16.1837 21.8378 15.6584 20.5839 16.5699C18.8889 17.802 16.1687 17.802 16.1687 17.802C16.1687 17.802 13.4467 17.802 11.7518 16.5699C10.4984 15.6584 9.55578 16.1837 9.2154 16.8153C8.62073 17.9158 9.29161 18.4481 10.8056 19.3451C12.0986 20.1116 13.8756 20.3978 15.0225 20.5047L14.0647 21.3888C12.7159 22.6333 11.4143 23.8359 10.5106 24.67C9.97009 25.1684 9.97009 25.9768 10.5106 26.4752L10.673 26.6262C11.2135 27.1246 12.0887 27.1246 12.6292 26.6262L16.1832 23.345C17.5332 24.59 18.8348 25.792 19.7384 26.6262C20.279 27.1246 21.1541 27.1246 21.6946 26.6262L21.857 26.4752C22.3975 25.9763 22.3975 25.1684 21.857 24.6695L18.3029 21.3889L17.3429 20.5021C18.4909 20.3925 20.2481 20.1051 21.5305 19.3452C23.0446 18.4481 23.7144 17.9158 23.1208 16.8153Z" fill="white"/>
</svg>
