<svg width="32" height="32" viewBox="0 0 32 32" fill="none" xmlns="http://www.w3.org/2000/svg">
<circle cx="16" cy="16" r="16" fill="#475009"/>
<path d="M26.0435 19.9186C25.5645 19.3437 25.0202 18.8283 24.4938 18.3299C24.3066 18.1527 24.1131 17.9695 23.9265 17.7872C23.3909 17.2636 23.3714 17.0668 23.7955 16.472C24.0889 16.0619 24.3999 15.6514 24.7008 15.2543C24.9736 14.8941 25.2558 14.5215 25.5263 14.1478L25.5818 14.0709C26.0987 13.3557 26.6333 12.6161 26.9178 11.724C26.9917 11.4886 27.0692 11.1422 26.8919 10.8526C26.7146 10.5632 26.3708 10.4749 26.1275 10.4336C26.0072 10.4132 25.8877 10.4104 25.7768 10.4104L22.3917 10.408L22.3637 10.4078C21.8519 10.4078 21.507 10.649 21.3093 11.1452C21.1206 11.6194 20.9134 12.1243 20.6768 12.6044C20.2061 13.5604 19.6083 14.6615 18.7433 15.5798L18.7067 15.6189C18.6045 15.7286 18.4888 15.853 18.4042 15.853C18.3913 15.853 18.3772 15.8505 18.3612 15.8455C18.182 15.7756 18.0617 15.3419 18.0672 15.1401C18.0672 15.1373 18.0673 15.1345 18.0673 15.1317L18.0649 11.2192C18.0649 11.2057 18.064 11.1922 18.0622 11.1788C17.9761 10.5428 17.7853 10.1468 17.0646 10.0057C17.0455 10.0019 17.0259 10 17.0064 10H13.4865C12.9131 10 12.5971 10.2331 12.3001 10.5819C12.2199 10.6752 12.053 10.8693 12.1357 11.1048C12.2197 11.3439 12.4921 11.395 12.5808 11.4116C13.0212 11.4954 13.2694 11.7647 13.3397 12.2354C13.4624 13.0526 13.4775 13.9249 13.3872 14.9806C13.362 15.274 13.3121 15.5006 13.23 15.6942C13.211 15.7394 13.1433 15.8868 13.0743 15.8869C13.0524 15.8869 12.989 15.8783 12.8735 15.7987C12.6005 15.6117 12.4007 15.3447 12.1678 15.015C11.3755 13.8953 10.7105 12.6617 10.1347 11.2431C9.92108 10.7209 9.52219 10.4285 9.01098 10.4199C8.44927 10.4114 7.93999 10.4072 7.45427 10.4072C6.92356 10.4072 6.43154 10.4121 5.95109 10.4221C5.5398 10.4294 5.25531 10.5527 5.10561 10.7889C4.95568 11.0252 4.96542 11.3357 5.13462 11.7115C6.48901 14.7225 7.71702 16.9118 9.11647 18.8103C10.0971 20.1388 11.0806 21.0584 12.2114 21.7039C13.4028 22.3855 14.7379 22.7169 16.293 22.7169C16.4693 22.7169 16.6516 22.7126 16.8353 22.704C17.739 22.6599 18.0742 22.3329 18.1166 21.4531C18.1368 21.0034 18.1859 20.5319 18.407 20.1297C18.5465 19.8764 18.6765 19.8764 18.7193 19.8764C18.8017 19.8764 18.9038 19.9143 19.0134 19.9853C19.2101 20.1137 19.3788 20.2857 19.517 20.4359C19.6471 20.5786 19.7758 20.7228 19.9046 20.8671C20.1826 21.1784 20.47 21.5002 20.7702 21.8055C21.4274 22.4741 22.1513 22.7681 22.9828 22.7043H26.0864C26.093 22.7043 26.0997 22.7041 26.1063 22.7037C26.4155 22.6832 26.6834 22.5117 26.8411 22.233C27.0365 21.8878 27.0326 21.4474 26.8306 21.0546C26.6014 20.6105 26.304 20.231 26.0435 19.9186Z" fill="white"/>
</svg>
